PathFileType	4	(X/Y/Z)	C:/Users/beibeiliu/ov580/test_trc\sequence.29_training_dense_right.trc
DataRate	CameraRate	NumFrames	NumMarkers	Units	OrigDataRate	OrigDataStartFrame	OrigNumFrames
120	120	22	19	mm	120	53	78
Frame#	Time	ThumbCMC			ThumbMCP			ThumbIP			ThumbTip			IndexMCP			IndexPIP			IndexTip			MiddleMCP			MiddlePIP			MiddleTip			RingMCP			RingPIP			RingTip			PinkyMCP			PinkyPIP			PinkyTip			BackHand1			BackHand2			BackHand3	
		X0	Y0	Z0	X1	Y1	Z1	X2	Y2	Z2	X3	Y3	Z3	X4	Y4	Z4	X5	Y5	Z5	X6	Y6	Z6	X7	Y7	Z7	X8	Y8	Z8	X9	Y9	Z9	X10	Y10	Z10	X11	Y11	Z11	X12	Y12	Z12	X13	Y13	Z13	X14	Y14	Z14	X15	Y15	Z15	X16	Y16	Z16	X17	Y17	Z17	X18	Y18	Z18	
52	0.433333	99.6586	63.9021	-0.426013	97.9795	81.882	-24.0721	89.6926	88.387	-43.5453	89.08	97.5111	-60.7493	64.0162	75.5052	-53.9792	64.7045	99.9365	-42.8633	71.5342	82.5881	-17.1747	45.3651	76.7251	-46.6749	51.7843	101.934	-35.503	64.3237	86.5658	-8.24867	31.9288	74.1679	-38.6404	39.6696	96.5646	-28.673	54.1252	83.9856	-6.0827	18.7034	55.5847	-23.6662	7.91061	62.2684	-37.1907	-3.50352	66.4717	-51.3499	48.073	36.5789	-3.90793	62.883	34.026	21.6816	77.6049	37.8466	-1.32251	
53	0.441667	101.177	60.0522	3.04511	104.377	71.7553	-24.4398	99.3396	74.5787	-44.4962	97.0251	76.8405	-68.5238	74.3273	54.52	-54.76	68.2721	80.9416	-55.2403	73.4375	79.0437	-25.7448	56.7645	58.888	-51.3149	56.7391	90.008	-42.904	66.3125	82.0992	-14.5643	36.3056	59.1693	-45.2977	42.6409	83.7542	-41.7398	59.8632	78.0045	-16.9598	22.6933	45.5293	-25.5555	13.4309	49.1075	-40.3214	8.89082	47.9468	-59.2738	51.7704	31.8184	1.97293	61.4462	34.2677	25.3866	82.8848	32.1613	4.06207	
54	0.45	105.296	55.2089	7.8174	110.237	58.7888	-19.3197	109.684	53.2375	-44.2824	109.874	52.9551	-61.7646	86.202	34.0973	-52.8668	82.0606	61.1763	-56.8737	83.5612	68.1792	-30.304	68.7092	38.0949	-50.3187	68.1735	68.8053	-49.1532	77.6346	71.4291	-22.0524	52.3899	36.9613	-45.2832	52.2525	62.0859	-47.6532	65.3234	67.8531	-23.4759	34.4371	25.765	-27.1056	28.2467	24.8612	-43.8707	20.3135	20.3424	-63.2757	63.1043	23.9097	4.94878	66.3485	33.3441	31.9616	91.0954	25.881	11.3506	
55	0.458333	114.441	51.9177	11.865	122.767	46.0896	-15.5279	125.882	39.5491	-35.033	124.848	28.527	-55.2124	108.372	15.5703	-41.0056	97.3125	36.363	-54.1153	94.9291	54.7987	-33.6401	87.548	15.74	-40.8497	82.9652	43.1848	-50.3246	87.5855	55.7822	-19.3169	68.6469	12.5714	-34.4976	73.9494	38.9941	-46.0976	75.0963	52.2463	-21.4846	55.3964	4.94279	-15.3696	47.7895	-3.85598	-33.8621	49.2441	-12.5057	-51.2424	77.3444	13.4975	15.5262	77.8374	32.0717	38.1222	106.898	25.3079	21.8062	
56	0.466667	125.385	52.8487	14.8512	136.967	46.3931	-11.8941	141.851	32.8759	-28.5711	145.517	22.1383	-46.2905	128.259	7.99543	-31.8431	120.001	23.6865	-49.8505	109.285	47.8839	-32.2242	110.557	4.37152	-32.0557	99.4054	26.319	-46.86	100.206	46.5769	-20.7933	95.6113	-0.0656819	-26.9656	87.4565	22.5623	-42.5331	88.1013	39.2428	-20.8117	81.5472	-10.0355	-7.30203	75.6749	-22.9306	-22.3174	75.2713	-32.304	-41.4912	94.0807	10.6843	23.4243	91.7012	28.45	42.1416	118.354	26.0018	28.4687	
57	0.475	133.191	58.7099	15.5729	149.293	51.703	-11.0543	159.305	39.7383	-29.5603	161.276	30.4496	-41.5943	152.557	14.1159	-26.7077	136.016	24.2619	-48.1999	119.718	44.5809	-31.7166	131.68	3.73764	-28.6696	117.099	25.583	-44.8726	110.335	41.8996	-19.7353	117.35	-5.38159	-23.466	108.624	14.17	-41.0014	107.44	34.4771	-19.4428	106.159	-19.9833	-3.03915	111.663	-29.5922	-17.147	114.322	-43.1742	-37.4884	117.416	10.3196	26.0944	107.003	23.7573	41.7044	132.67	29.7961	31.0294	
58	0.483333	139.983	61.7671	15.0751	152.09	65.0229	-10.539	165.128	59.0145	-28.5837	172.362	46.1856	-44.8434	167.556	26.3984	-26.8444	150.821	36.8878	-49.1482	130.304	50.2109	-34.3622	153.507	12.4072	-28.0745	129.506	27.4431	-44.5546	122.359	46.0866	-18.336	144.8	1.8731	-25.6803	125.16	15.9625	-40.3897	118.688	32.9447	-21.6806	134.243	-17.6117	-3.55189	141.75	-28.6038	-17.8256	149.401	-40.7506	-32.6768	133.492	10.8671	24.8516	119.926	24.3211	44.3171	145.314	36.909	32.1296	
59	0.491667	138.633	67.9434	14.9762	149.671	78.7934	-11.9006	162.317	69.3646	-30.5235	170.014	68.4803	-47.2239	176.127	48.503	-30.3087	156.724	48.5731	-50.2798	130.498	53.4315	-35.9201	164.352	28.3604	-34.9076	139.06	37.0787	-47.5811	123.961	47.7778	-23.0573	159.12	11.4924	-30.6222	137.237	23.0723	-44.2509	124.631	34.3657	-22.6653	155.346	-7.69577	-6.54082	164.634	-17.0277	-20.3357	176.294	-22.8169	-34.4435	153.207	18.0289	18.6054	134.236	25.6363	42.1677	153.133	44.7331	31.2723	
60	0.5	130.656	79.3887	15.1291	138.026	85.4908	-11.7421	148.259	90.1819	-32.5229	155.893	93.5695	-51.8734	171.75	67.9584	-36.6299	147.62	67.8942	-53.2964	123.025	66.1682	-36.8476	168.328	50.626	-36.3013	141.646	53.531	-51.6196	122.171	53.2432	-20.7042	164.773	30.4538	-38.7745	141.42	36.3405	-46.5461	127.411	42.3045	-22.467	168.847	8.84821	-13.6772	183.006	8.11194	-30.4258	192.499	-1.3634	-39.7122	161.954	30.7218	15.9699	144.849	32.3669	38.0114	157.824	57.9691	26.0077	
61	0.508333	121.248	85.9748	12.6414	116.335	98.1145	-12.449	125.31	104.82	-34.9666	131.99	106.391	-51.0778	155.308	91.9391	-36.0377	133.359	79.8226	-55.3174	111.518	74.3741	-39.7224	157.773	68.1658	-40.1043	128.273	66.4448	-53.5492	113.198	63.0483	-25.9642	159.671	55.2934	-41.5322	136.705	53.178	-51.2657	121.672	52.0377	-26.0134	175.056	35.6559	-23.572	182.377	32.5847	-35.8339	199.573	33.1496	-52.5949	161.787	49.3675	8.56071	148.122	45.0627	32.5132	148.886	76.1772	23.0544	
62	0.516667	100.928	92.3069	14.3549	92.734	101.147	-11.4386	96.3069	112.265	-35.5654	95.857	117.957	-51.4469	126.547	107.017	-39.4976	108.982	92.9652	-55.9802	89.6561	77.0769	-36.109	132.552	88.8775	-50.0664	107.201	76.9064	-55.1218	99.2265	65.7412	-23.4503	143.004	73.5437	-46.2775	114.795	67.5086	-51.7781	109.689	61.794	-22.6057	163.532	58.9625	-31.5387	170.256	64.992	-49.4503	180.099	70.7764	-65.7788	149.972	70.915	4.64664	143.716	59.771	28.8494	133.421	89.5283	16.9793	
63	0.525	76.8155	93.5797	14.7002	62.6577	98.9478	-8.59964	56.7216	107.987	-29.8286	52.3445	113.688	-50.3847	87.1784	113.414	-41.8207	66.7199	93.5033	-52.9149	69.7463	72.9189	-30.5389	98.8347	98.7633	-49.9038	79.9408	78.7898	-54.9429	81.1722	65.7825	-19.9906	113.44	88.0485	-50.5892	92.5816	70.5189	-53.4789	90.7086	64.9213	-26.8314	137.965	82.5312	-41.2183	136.426	89.3379	-56.3796	144.295	96.3385	-73.7863	130.087	92.2822	-4.34746	128.438	77.9741	22.9032	106.527	102.606	13.8854	
64	0.533333	53.9992	82.4882	22.2974	29.8829	84.0859	-2.1579	19.5598	84.866	-19.4882	12.5226	88.6772	-40.7685	40.9343	105.647	-37.3734	33.3266	75.4159	-45.9395	46.4281	62.6951	-23.3688	56.0898	94.6561	-47.9802	51.9316	65.8698	-49.1953	57.2841	60.193	-17.6592	75.5976	89.8788	-52.3473	64.5267	61.8541	-49.4071	67.2141	61.444	-24.8506	100.477	96.0302	-47.1181	97.9034	99.9941	-64.5512	100.615	106.686	-79.6429	97.9244	102.105	-10.2569	105.738	92.681	17.0949	77.1644	103.786	13.3765	
65	0.541667	34.9546	71.0409	25.0356	16.2217	62.9641	4.95708	0.804286	61.4007	-11.4471	-8.6576	58.8008	-28.7078	16.0913	84.9513	-34.2448	19.2797	55.5021	-42.1289	31.2306	47.2279	-19.0553	34.646	75.0889	-48.6822	34.4599	48.38	-43.4543	42.4287	47.7799	-13.0886	47.6769	75.9925	-50.8528	44.0127	50.9071	-45.3127	51.1334	52.8262	-17.9351	73.3957	90.8922	-49.2063	71.262	92.2684	-67.8537	67.6597	97.953	-80.5374	72.8295	97.4473	-8.19413	82.3076	91.3408	17.6034	53.5746	99.308	11.722	
66	0.55	24.8831	57.2769	29.1514	8.28316	44.6065	11.5613	-9.74756	41.2316	-7.19563	-17.8415	36.8057	-22.4944	5.83258	62.5268	-33.1699	5.59714	36.1924	-36.4949	23.6428	33.2765	-8.33085	23.5271	59.0274	-41.5265	26.3325	29.211	-36.481	37.71	36.7731	-4.98167	38.3409	56.9729	-49.8119	38.1738	31.3484	-38.4123	43.3908	36.9774	-14.0222	62.6162	75.9379	-46.0522	59.0279	75.0465	-59.8574	59.2007	80.1381	-80.4168	60.3686	86.5615	-10.3829	71.0941	82.1671	15.898	41.8184	83.9417	16.0799	
67	0.558333	21.8668	48.4014	33.3476	5.59158	35.1412	14.2933	-7.88625	31.4878	-5.65013	-20.8313	24.3309	-16.6175	3.87641	52.2352	-30.5341	4.14752	24.5417	-32.0583	22.0003	22.1915	-7.84684	17.9453	44.2449	-39.1288	23.9674	18.3597	-34.5323	35.1187	22.3756	-4.35942	39.2053	49.691	-44.3869	34.5562	22.5114	-39.4879	41.5136	24.464	-12.3709	63.7687	62.8498	-42.7209	55.9716	63.2099	-62.187	57.7187	65.8214	-76.7201	57.6562	74.9712	-4.05946	71.5182	74.3951	20.411	35.6684	75.6687	17.4455	
68	0.566667	24.2241	45.1794	33.7172	9.60012	32.6745	15.7937	-9.83837	26.3693	-1.48686	-20.1878	21.9036	-16.2112	6.68623	52.3961	-28.2587	5.81556	25.4055	-37.5324	16.6879	13.981	-11.116	22.3942	44.507	-43.1458	23.4682	17.9145	-39.9506	33.7097	13.9315	-8.90347	42.0046	47.5324	-45.9232	33.9242	21.8461	-43.0515	38.7547	17.4778	-13.4413	64.2887	58.7757	-41.798	59.4857	56.8482	-55.9809	57.5861	58.9538	-78.9895	58.0345	71.6556	-1.42949	70.3639	71.2051	19.3702	41.5598	73.0214	16.3267	
69	0.575	26.9373	49.0212	28.2016	10.6977	35.1574	13.3033	-6.68639	30.3589	-7.08412	-14.9075	23.7052	-19.5437	3.82004	54.9028	-32.0145	2.16181	30.434	-42.2043	12.3355	10.5208	-23.573	22.268	54.3778	-44.1722	18.0162	26.3871	-51.3924	31.3685	8.49668	-26.374	44.3396	55.2501	-45.6507	34.0345	31.2665	-52.9947	39.2697	11.7226	-30.989	64.4604	60.0738	-42.842	67.2927	56.1129	-57.6904	63.6354	53.2239	-77.0801	61.2557	73.748	-4.94767	69.0178	72.4054	24.2797	40.9651	72.755	21.0051	
70	0.583333	27.1897	51.3487	28.567	9.65851	37.3323	8.69793	-6.48223	30.4681	-9.1544	-12.6994	24.3495	-27.0937	8.3684	59.6325	-38.0928	0.689841	38.4878	-50.5991	5.49919	9.01483	-41.0292	29.0438	61.9685	-48.3247	17.1692	41.1743	-63.4961	23.3785	10.1594	-57.0044	45.9868	59.468	-46.5704	37.2136	40.7271	-63.3551	31.0757	14.3983	-56.5171	67.8091	58.5105	-44.4823	67.6859	50.5601	-62.4251	63.151	46.8154	-76.7057	62.6709	73.4237	-6.98132	69.2837	74.1941	18.5121	42.0459	78.3878	15.5349	
71	0.591667	25.4775	51.888	26.6176	6.58632	36.0593	11.2155	-0.0944017	28.6345	-12.8914	-8.92692	19.2571	-31.4487	11.3899	58.7081	-37.7714	6.36102	38.8457	-56.7764	0.66401	15.4444	-59.4728	29.5141	58.226	-50.7807	23.2309	43.1171	-68.5479	19.2076	10.6516	-75.7831	51.1627	53.8883	-48.1827	47.8488	37.4917	-65.4749	36.1074	12.2444	-72.4758	73.7022	49.5817	-39.4531	69.9784	42.9969	-56.2071	68.6145	34.1664	-71.7203	66.5544	72.2719	-3.61518	71.1874	72.5067	24.4363	43.692	73.9499	17.4786	
72	0.6	27.7919	49.0493	30.1829	9.54312	32.3605	8.50514	2.41658	23.5065	-11.9147	-3.58247	13.1201	-28.9953	19.6133	51.9133	-36.9828	11.1847	33.1488	-58.8423	6.92895	11.517	-68.7684	37.8951	49.0557	-49.413	34.2384	33.9784	-69.9857	27.6047	12.7699	-83.3937	57.4464	45.7914	-44.0898	50.6994	29.2631	-64.3656	49.0169	9.41571	-77.1485	77.3612	42.1566	-34.6974	76.2104	30.8217	-54.722	80.1747	23.1381	-71.6852	68.8035	66.0915	-2.31116	73.5002	69.3279	19.8997	42.2063	70.6554	12.6296	
73	0.608333	28.6689	48.26	26.369	9.60855	30.4028	11.9525	5.47044	20.9459	-9.21382	-1.66891	12.1333	-25.7792	21.7712	47.2796	-38.3397	12.2149	31.7017	-55.9994	9.41043	14.1444	-69.9736	41.962	44.9199	-48.3394	39.655	31.5162	-66.0346	35.1374	11.3202	-84.7661	61.7706	42.1006	-42.0822	61.7739	26.469	-64.1789	56.8812	9.4645	-77.8333	84.3011	38.5753	-32.1431	88.0157	29.2792	-49.9279	90.2534	24.137	-69.7768	68.8023	61.6641	-2.90291	74.163	67.7344	24.2477	45.7121	68.4278	15.4566	
